<svg width="256" height="256" viewBox="0 0 256 256" fill="none" xmlns="http://www.w3.org/2000/svg">
<g clip-path="url(#clip0_1_2)">
<rect width="256" height="256" rx="12" fill="#10172A"/>
<path d="M162.823 96.231C165.136 96.231 166.292 96.8947 166.292 98.222C166.292 99.5124 165.521 100.158 163.98 100.158C162.071 100.158 160.676 100.563 159.795 101.374C158.4 102.702 157.06 105.061 155.775 108.453L132.153 170.726C131.235 173.012 130.354 174.155 129.51 174.155C128.445 174.155 127.454 172.846 126.536 170.228L113.541 131.792L97.3527 170.726C96.435 173.012 95.6091 174.155 94.8749 174.155C93.9204 174.155 92.9293 172.846 91.9014 170.228L66.2418 108.675C64.7 105.135 63.5621 102.96 62.8279 102.149C61.6165 100.821 60.1665 100.158 58.4779 100.158C56.826 100.158 56 99.494 56 98.1667C56 97.6505 56.2937 97.2081 56.881 96.8394C57.4684 96.4338 58.276 96.231 59.3038 96.231C60.3317 96.231 61.176 96.2863 61.8367 96.3969C62.4975 96.4707 63.1583 96.5628 63.819 96.6735C65.6545 96.9684 67.4899 97.1159 69.3254 97.1159L78.8514 96.231C81.2375 96.231 82.4305 96.8578 82.4305 98.1114C82.4305 98.6275 82.2286 99.0884 81.8248 99.494C81.421 99.8995 80.7235 100.102 79.7324 100.102C78.778 100.102 77.952 100.176 77.2545 100.324C76.5938 100.434 76.0798 100.619 75.7128 100.877C75.1254 101.245 74.8317 101.872 74.8317 102.757C74.8317 104.637 75.5659 107.329 77.0343 110.831L97.0223 159.002L111.119 124.713L105.943 109.283C104.731 105.707 103.575 103.421 102.474 102.425C100.822 100.987 99.0046 100.25 97.0223 100.213C95.0401 100.139 94.0489 99.4571 94.0489 98.1667C94.0489 97.6505 94.3426 97.2081 94.9299 96.8394C95.5173 96.4338 96.3249 96.231 97.3527 96.231C98.3806 96.231 99.2249 96.2863 99.8857 96.3969C100.546 96.4707 101.226 96.5628 101.923 96.6735C103.722 96.9684 105.539 97.1159 107.374 97.1159L119.598 96.231C121.984 96.231 123.178 96.8394 123.178 98.0561C123.178 99.2728 122.186 99.8811 120.204 99.8811C116.386 99.8811 114.477 101.079 114.477 103.476C114.477 105.651 115.212 108.859 116.68 113.099L132.153 158.504L149.112 110.997C150.177 107.974 150.709 105.78 150.709 104.416C150.709 101.393 148.433 99.8811 143.881 99.8811C142.303 99.8811 141.514 99.2728 141.514 98.0561C141.514 96.8394 142.707 96.231 145.093 96.231C146.268 96.231 147.589 96.3785 149.057 96.6735C150.562 96.9684 152.398 97.1159 154.564 97.1159L162.823 96.231Z" fill="white"/>
<path d="M182.495 82.7302C182.495 82.1401 182.921 81.8451 183.774 81.8451C185.74 81.8451 187.576 82.4188 189.281 83.5661C189.805 83.8939 190.067 84.7953 190.067 86.2705C190.067 88.5979 189.199 91.8759 187.461 96.1046C190.412 94.9573 192.428 93.9411 193.509 93.056C194.591 92.1709 195.493 91.3678 196.214 90.6467C196.935 89.8927 197.41 89.5157 197.64 89.5157C197.869 89.5157 198.115 89.6632 198.377 89.9583C198.672 90.2533 198.935 90.6303 199.164 91.0892C199.721 92.2693 200 93.3347 200 94.2853C200 95.2359 199.918 95.9571 199.754 96.4488C199.59 96.9077 199.262 97.2683 198.771 97.5306C197.853 98.0223 196.345 98.2681 194.247 98.2681C191.526 98.2681 189.363 98.1534 187.756 97.9239C189.658 100.973 192.674 103.824 196.804 106.48C197.427 106.906 197.738 107.283 197.738 107.611C197.738 107.938 197.558 108.299 197.197 108.692C196.869 109.086 196.427 109.463 195.87 109.823C194.558 110.708 193.509 111.151 192.723 111.151C191.969 111.151 191.33 110.905 190.805 110.413C190.281 109.922 189.723 109.168 189.133 108.151C187.756 105.791 186.626 102.775 185.74 99.104C183.806 101.89 182.397 105.201 181.512 109.037C181.217 110.446 180.84 111.151 180.381 111.151C179.201 111.151 178.201 110.757 177.381 109.971C175.874 108.561 175.12 107.545 175.12 106.922C175.12 106.299 175.3 105.693 175.66 105.103C176.021 104.48 176.562 103.775 177.283 102.989C178.857 101.251 180.987 99.5629 183.675 97.9239C181.676 97.3011 178.922 96.9897 175.415 96.9897L171.678 97.1864C171.284 97.1864 171.088 96.9077 171.088 96.3505C171.088 95.7604 171.186 95.0884 171.383 94.3345C171.612 93.5805 171.907 92.8921 172.268 92.2693C173.054 90.9581 173.907 90.3025 174.825 90.3025C178.168 90.3025 181.545 92.089 184.954 95.6621C184.823 91.5645 184.069 87.6472 182.692 83.9103C182.528 83.4186 182.462 83.0252 182.495 82.7302Z" fill="white"/>
</g>
<defs>
<clipPath id="clip0_1_2">
<rect width="256" height="256" rx="12" fill="white"/>
</clipPath>
</defs>
</svg>
