<svg width="324" height="202" viewBox="0 0 324 202" fill="none" xmlns="http://www.w3.org/2000/svg">
<path d="M41.3018 180.004C40.0461 179.8 39.2316 178.137 40.114 177.357C39.6388 176.406 39.1298 175.592 38.5189 174.71C38.1117 175.083 37.7044 175.592 37.1614 175.694C37.1614 175.151 37.6026 173.861 37.5008 173.352C37.5008 173.25 36.9917 173.284 36.9578 173.114C36.6184 171.689 36.7202 171.791 37.4329 170.332C37.0936 170.807 36.6524 171.18 36.1433 171.452C36.1433 170.366 35.3627 170.366 34.5143 170.128C35.0912 169.856 35.6003 169.585 36.1433 169.347C35.8039 168.906 35.4985 168.431 35.1591 167.99V168.024C35.1591 167.718 35.1591 167.413 35.1591 167.108V165.614H34.684C34.3446 163.646 35.3288 161.678 35.6682 159.641C35.2949 158.861 34.8537 158.216 34.8876 157.3C34.8876 156.994 34.7179 156.655 34.8876 156.349C35.1252 155.908 35.9736 155.908 36.0754 155.739C36.6184 154.72 35.77 154.483 35.8039 153.634C35.8039 152.956 36.0754 152.684 36.313 152.107C36.3809 151.904 36.0075 151.361 36.0415 151.089C36.0754 150.75 37.6026 151.904 36.9578 151.462C36.6184 150.376 35.5324 149.189 37.0936 148.714C36.7881 148.069 36.7202 146.847 36.9239 146.032C37.2293 144.879 37.942 145.761 37.6365 144.064C37.5347 144.471 37.2972 144.641 36.8899 144.539C36.856 143.725 37.7723 143.793 38.3153 143.216C37.8741 143.216 37.4329 143.182 37.0257 143.046C37.3311 141.655 37.7723 140.297 37.942 138.872C38.1117 137.005 37.399 136.089 39.4692 135.919C37.9759 134.833 38.7565 134.833 39.2655 133.408C39.3334 133.204 38.5189 133.034 38.7904 132.627C38.9262 132.424 39.7746 132.084 39.9782 131.881C39.6049 131.813 39.2655 131.643 38.994 131.405C39.2995 131.202 39.6389 131.1 39.9782 131.134C39.0619 129.878 39.6049 128.589 39.9443 127.299C40.2497 126.213 40.114 124.007 41.2339 123.464C40.4533 121.632 42.3538 122.684 42.6932 121.699C41.1321 121.462 41.3018 118.679 42.8629 119.358C42.9987 119.018 43.6435 117.186 43.7792 118.917C43.881 120.512 42.3199 122.378 42.0484 123.939C41.8787 124.788 42.1502 126.213 41.9126 127.197C41.6072 128.555 40.8606 128.249 40.4533 129.166C42.252 129.2 41.4036 130.082 41.2339 131.134C40.8945 133.001 40.657 135.172 40.6909 137.107C42.1163 131.236 43.7453 125.466 45.4082 119.663C46.9015 114.369 49.4467 108.532 49.8879 103.034C48.1911 104.595 47.0372 106.088 47.0372 108.396C46.3924 107.921 45.7476 107.31 44.967 107.106C45.3403 106.665 45.7815 107.106 46.053 106.563C46.2227 106.19 45.8154 105.036 45.7136 104.697C45.9851 105.172 46.0869 105.443 46.3924 105.817C46.9014 105.036 47.2748 103.984 47.6141 103.305C47.9196 102.694 47.1051 102.355 48.2589 102.355C48.3607 101.914 48.6662 101.303 48.6323 100.828C48.5983 100.081 48.2589 100.081 48.0553 99.5043C47.682 98.4523 47.173 99.0971 48.0553 97.7057C48.2929 98.045 48.4286 98.4523 48.3947 98.8935C49.0056 98.1808 48.9716 97.6717 48.4965 96.7893C50.5667 96.8233 50.1594 94.5495 51.0079 92.9544C51.2454 93.0902 51.483 93.2259 51.6866 93.3617C51.7884 93.0223 51.8563 92.6829 51.9581 92.3096C51.5509 92.5811 51.2794 92.7508 51.0079 92.9544C49.854 91.9702 51.7545 91.4612 51.992 90.5788C52.2635 89.5946 51.5169 88.8819 51.5169 87.9317C51.5169 87.5923 52.1278 87.6941 52.1617 87.5244C52.1957 87.2529 51.8902 86.9475 51.9581 86.7778C52.0939 86.3027 51.6866 85.9973 52.026 85.4203C52.2975 84.9791 52.9084 85.0131 53.2817 84.6398C52.9762 84.2665 52.6029 84.2325 52.1957 84.4701C52.3993 83.9271 52.7726 83.5877 53.3156 83.418C53.1799 83.2823 53.0102 83.1465 52.8405 83.0108C54.1301 82.9768 53.2817 81.4157 53.7229 80.737C54.0283 80.3297 54.8428 80.4655 54.9446 80.2958C55.2161 79.7867 54.8767 79.0062 55.0125 78.4292C55.1822 77.6487 55.793 77.2754 56.0645 76.6306C56.4039 76.4609 56.6415 76.2233 56.7772 75.9179C56.7772 75.5446 56.7093 75.2052 56.5057 74.8997C56.8111 74.0853 57.3541 71.3703 58.2026 71.1327C58.0329 70.8612 58.508 69.1304 58.3723 69.1643C58.7456 69.2322 59.1189 69.334 59.4922 69.4358C59.3225 69.1304 59.1868 68.8589 59.0171 68.5535C59.2546 68.4517 59.5601 68.7571 59.7976 68.6213C59.6279 68.7231 59.3225 67.739 59.3904 67.4675C59.6279 66.5172 60.6461 65.0919 61.2569 64.3452C61.4266 64.1416 62.0375 64.0398 62.1054 63.8701C62.1732 63.7004 62.1393 63.1574 62.2411 62.9538C62.309 62.8181 62.0714 62.4108 62.0714 62.2411C62.0714 61.9017 62.7841 61.9696 62.7502 61.3927C62.7502 61.0533 61.9357 61.223 61.9357 60.8497C61.9357 60.4764 62.2411 60.4085 62.2751 60.1709C62.2751 60.3406 62.9877 58.3383 62.852 58.5419C63.0556 58.2365 65.2276 56.9129 64.9222 56.4718C64.7525 56.3699 64.6167 56.3021 64.4471 56.2003C64.7864 55.793 65.7367 55.0803 65.8385 54.5373C65.9403 53.9943 65.4312 53.8246 65.567 53.2477C65.9064 53.4174 66.2118 53.621 66.5512 53.7907C66.3815 53.2477 66.4833 52.7047 66.7887 52.1957C67.0602 52.2975 67.3657 52.3993 67.6711 52.5011C67.6372 52.0938 67.2639 50.8042 67.4675 50.4988C67.6711 50.1594 68.3838 50.397 68.6213 50.0915C69.4358 49.1074 69.1644 48.9377 68.8589 47.4784C70.454 48.3268 70.7933 46.7317 70.8273 45.4761C71.54 46.1209 71.9812 45.7815 72.9314 45.5439C72.3205 45.4082 71.9811 45.3064 71.6078 45.2385C73.3726 44.5258 71.8454 43.4398 72.8635 42.3199C73.1011 42.0484 74.0174 42.4896 74.2889 42.3878C75.341 42.0145 75.884 41.6411 76.8003 40.9624C78.3953 39.8085 79.9225 38.3492 81.9927 38.1795C83.8253 38.0438 85.4203 39.028 87.219 38.6546C89.3571 38.2135 90.6806 37.2293 92.7169 38.6546C93.9386 39.5031 94.7192 40.8266 94.821 42.3199C94.9228 44.2543 93.7011 46.4602 93.0223 48.225C92.1739 50.4309 91.3594 52.6029 90.4431 54.7749C88.848 58.5759 87.0833 62.309 85.1488 65.9063C83.3162 69.3001 82.8072 73.1011 81.1103 76.5627C79.2098 80.4655 78.1917 84.9113 76.7663 89.0177C75.3409 93.0562 73.0332 97.502 72.6599 101.778C83.4859 95.907 94.5155 90.6806 104.018 82.7393C108.633 78.8704 112.944 74.5943 116.88 70.0467C118.034 68.7232 119.324 67.4335 120.274 65.9742C120.885 65.0579 121.021 63.9719 121.564 63.0217C121.733 62.7162 121.767 62.309 121.971 62.0035C122.175 61.6642 122.616 62.1393 122.819 61.7999C122.921 61.5624 122.616 61.2569 122.718 61.0872C122.955 60.7139 123.26 59.8316 123.532 59.4243C123.532 59.4583 123.328 59.0849 123.091 58.7116C124.957 57.6935 124.923 55.8609 125.84 53.7568C126.247 52.8405 126.926 52.1617 127.299 51.3812C127.638 50.6685 127.061 49.4807 127.91 49.0055C127.672 48.8698 127.401 48.734 127.163 48.5983C127.299 48.4625 127.435 48.2929 127.571 48.1232C126.281 47.1729 127.299 46.3245 127.537 45.2385C127.774 43.9828 127.537 42.3199 127.163 41.0981C127.571 41.0981 127.842 40.9624 128.012 40.623C127.876 40.1818 127.163 40.2836 127.129 39.7407C127.095 39.1298 127.706 38.7225 127.706 38.3492C127.774 37.1614 126.281 36.6184 127.129 35.6003C127.299 35.77 127.469 35.9736 127.638 36.1433C127.672 36.1433 127.706 36.1093 127.774 36.0754C125.67 32.3084 123.77 29.797 119.799 27.8626C116.1 26.0639 112.027 25.3851 107.955 25.1815C99.3347 24.7403 91.2576 26.4372 83.0787 28.9486C81.5854 29.3897 80.0922 29.3898 78.7347 30.0346C77.8184 30.4757 76.9699 31.0866 76.0197 31.5617C75.3409 31.9351 74.764 31.9351 74.0853 32.1726C73.2708 32.478 73.5083 32.4441 72.8296 32.7835C71.506 33.4622 70.0807 34.0052 68.7571 34.7519C65.3634 36.6863 62.1054 38.9601 58.9153 41.2C57.999 41.8108 57.0148 42.2859 56.0985 42.9308C55.1143 43.6095 55.3179 43.9149 54.5713 44.5597C53.1459 45.7815 52.0599 45.51 50.3291 45.3064C50.8382 45.8833 51.483 46.1887 52.1957 46.596C51.0757 47.1729 50.9061 47.6141 50.1255 48.3947C49.0395 49.4467 48.0553 49.5146 46.596 49.82C49.311 50.6345 44.424 52.9423 43.7792 53.621C42.8968 54.5034 42.5235 55.793 41.5393 56.7093C40.5212 57.6935 39.9443 58.3044 39.1637 59.4922C37.6026 61.9017 35.6003 63.9719 34.1071 66.5172C32.512 69.1643 30.7133 71.7096 29.1861 74.4246C26.0978 79.9564 23.9259 86.2348 25.4191 92.6151C26.0978 95.5676 26.2675 97.502 28.5074 99.5383C29.1522 100.115 30.9169 101.439 31.0188 102.253C31.0527 102.593 30.4758 103.95 30.2043 103.679L30.7812 103.916C30.3061 104.799 29.5934 105.206 28.6431 105.104C28.6771 104.765 28.8128 104.425 28.9825 104.12C28.0662 103.814 27.8626 105.274 27.3535 105.783C27.2178 105.206 27.0142 104.663 26.7427 104.12C26.7427 105.138 26.2675 105.545 25.6567 106.36C25.5209 105.817 25.4191 105.376 25.3173 104.968C24.6725 105.172 24.8422 105.613 24.1634 105.511C24.6385 103.916 22.9756 104.629 22.1611 103.984C22.6702 103.882 23.2132 103.78 23.7222 103.679C23.6883 103.543 23.6543 103.407 23.5865 103.305C23.3489 103.407 22.3308 103.746 22.1611 104.018C18.4619 99.4704 15.4415 95.4319 14.0162 89.6286C12.7605 84.6058 12.6587 79.3116 13.0998 74.1531C13.541 68.9268 14.6949 63.7683 16.7311 58.9492C17.8511 56.3021 19.2764 53.7228 20.7357 51.2454C21.7539 49.5146 23.6883 45.5779 25.8263 45.7136C25.9621 45.2724 26.1997 44.5597 26.4033 43.881V45.0349C26.5051 45.0349 26.6409 45.0349 26.7427 45.0349C26.7087 44.5597 26.6748 44.0846 26.6069 43.6434C27.625 42.8968 28.2698 42.8629 28.3038 41.5393C28.5413 41.8787 28.8128 42.1841 28.9825 42.3878C29.2201 41.2678 29.2879 40.3176 30.2043 39.537C30.0346 39.8425 30.0346 40.114 30.2043 40.3855C31.9351 39.2655 32.9192 36.313 34.9555 36.0415C34.7858 35.7021 34.684 35.3288 34.5822 34.9555C35.3967 35.193 35.9057 35.4645 36.6524 35.8718C35.9397 35.0912 35.5664 34.7179 35.227 34.3107C36.3469 33.6319 36.7881 33.3604 36.9239 32.0369C37.2632 32.3423 37.5687 32.6817 37.8402 33.021C37.8741 32.0708 38.3832 32.1047 39.2655 32.2066C39.4013 32.2744 39.537 32.3423 39.6728 32.4102C37.3311 35.9057 35.0234 39.3673 32.6817 42.8629C32.7496 42.8629 32.7835 42.8968 32.8514 42.9308C36.6863 38.8583 40.4194 34.684 44.3901 30.7133C50.0237 25.0458 56.5397 20.4642 63.395 16.3578C63.7683 16.1202 64.2774 15.5094 64.1756 15.3058C63.938 14.7967 63.395 14.4234 62.9878 14.0161C62.9199 13.3374 65.8385 12.5908 66.4494 12.4889C66.2797 12.2174 66.11 11.9459 65.9403 11.6405C66.5512 11.7763 68.5874 11.7084 69.1644 11.4369C70.1825 10.9278 69.8431 10.5884 70.0807 9.40064C70.997 10.0794 71.0648 9.2649 71.506 9.50246C71.6078 9.57034 71.3703 10.6224 71.6078 10.4866C72.1508 10.3848 71.6078 8.38253 72.9653 9.70609C73.3726 8.9934 73.678 8.75584 73.3386 7.97528C74.255 8.1789 75.9858 8.7219 75.307 6.95716C75.7821 6.9911 76.4269 7.50015 76.8681 7.43228C77.4111 7.3644 77.2754 6.68566 77.7166 6.4481C78.0899 6.24447 78.7008 6.38022 79.0401 6.24447C79.4813 6.07479 80.0243 5.49785 80.5334 5.22635C81.9248 4.47973 83.6217 4.5476 85.1149 4.14035C85.5561 4.0046 85.5561 3.56342 85.8615 3.42768C86.2688 3.25799 87.6602 3.12223 88.2371 2.98648C91.1558 2.2738 94.2441 1.4593 97.2984 1.11993C99.7758 0.84843 108.667 -1.18781 109.855 1.05206C110.195 1.01812 109.957 0.0678747 110.33 0C110.636 0.169687 110.839 0.441184 110.907 0.814495C111.111 0.712682 111.348 0.644812 111.552 0.543C112.468 0.848436 113.826 0.882369 114.844 1.15387C114.844 1.25568 114.844 0.984185 114.844 0.712687C115.659 1.42537 116.439 0.84843 117.321 0.950242C118.034 1.05205 118.577 1.56112 119.086 1.66293C119.901 1.79868 120.919 1.56111 121.869 1.79868C122.819 2.03624 123.702 2.40955 124.618 2.68105C129.505 4.24217 133.34 6.24447 137.65 9.06127C141.722 11.7084 146.575 14.1179 148.747 18.8013C149.562 20.566 149.867 22.7041 150.309 24.6046C150.478 25.3173 152.243 28.8807 150.648 28.7789C150.886 29.8649 151.971 32.0369 150.342 32.2405C151.496 32.9532 150.512 35.0233 150.309 36.0415C150.071 37.3311 150.309 37.4668 148.781 37.365C150.852 38.2813 149.358 38.5189 148.883 39.5031C148.34 40.657 148.51 42.2859 148.51 43.6095C148.374 43.4398 148.204 43.2362 148.069 43.0665C147.831 43.7792 147.967 43.6434 146.983 43.9828C146.542 43.8471 146.066 43.7453 145.625 43.6434C145.625 43.7453 145.591 43.8471 145.557 43.9489H147.017C146.813 44.1525 146.575 44.3901 146.372 44.5937C145.999 44.5258 145.625 44.424 145.557 44.424C145.591 44.2543 145.659 47.2747 145.931 46.8675C145.625 47.3087 144.946 47.1729 144.709 47.4784C144.403 47.4105 144.166 47.4784 144.064 47.7159C143.86 47.9535 143.894 48.191 144.2 48.4965C144.03 49.311 144.946 50.9739 144.03 51.6527C143.419 50.1933 143.623 48.5304 142.639 47.2408C142.741 47.648 143.284 48.7001 143.114 49.0395C142.842 49.6164 142.096 49.2431 141.688 49.7182C141.179 50.363 141.485 51.483 141.078 52.2296C140.636 53.0102 139.652 53.5871 138.94 54.0622C139.347 54.0622 139.72 54.1301 140.059 54.3676C139.754 54.198 139.143 55.5215 138.125 54.7749C138.295 55.1143 138.464 55.4197 138.634 55.7591C138.261 55.8948 137.888 55.827 137.548 55.5215C137.582 56.1663 138.702 56.3021 139.211 56.2681C139.075 56.6754 138.973 57.0826 138.838 57.4899C138.431 57.0148 137.989 56.6075 137.548 56.2003C136.869 56.8111 136.292 57.2863 135.716 57.7953C135.716 57.7953 134.358 58.6777 134.154 59.0849C133.747 58.8474 133.577 58.508 133.611 58.0668C132.797 58.3723 131.304 59.2207 132.424 60.137C132.05 60.6121 131.643 61.1551 131.27 61.6642H131.304C130.795 61.6642 131.711 63.8022 130.184 62.4447C129.335 63.7004 129.573 64.1077 129.267 65.4652C129.132 65.2276 128.996 64.99 128.86 64.7525C128.758 65.9403 128.181 65.7706 127.503 66.5851C126.722 67.5353 126.654 68.7231 125.84 69.6734C125.602 69.4358 125.365 69.1304 125.195 68.8589C124.686 70.6576 125.127 71.3363 123.668 72.9653C122.582 74.1871 121.496 75.4767 119.901 75.85C119.426 78.7347 115.421 79.8546 114.573 82.7393C121.258 77.479 128.147 72.3884 134.63 66.8905C140.365 62.0036 145.048 56.0645 149.426 49.9897C144.573 59.3225 137.786 67.4335 130.455 74.8658C122.887 82.5696 114.708 89.6964 105.477 95.364C117.321 94.4816 130.082 96.8233 138.091 106.461C141.383 110.432 143.453 116.507 142.333 121.665C141.79 124.279 140.806 126.858 140.229 129.471C140.195 129.709 139.822 130.353 139.788 130.421C139.788 130.523 140.195 130.727 140.059 130.93C139.449 131.982 139.177 131.881 138.057 131.372C138.397 132.288 139.381 132.424 139.347 133.476C139.347 134.731 137.786 135.41 137.005 136.157C138.77 135.783 138.295 136.937 137.684 137.921C137.582 138.091 136.835 137.854 136.7 138.091C136.36 138.6 136.7 140.263 136.7 140.84C135.512 141.349 135.614 139.347 135.071 138.906C135.003 139.992 135.716 140.908 135.512 141.96C135.071 141.655 134.663 141.315 134.324 140.942C134.324 142.299 134.426 142.673 135.24 143.725C132.186 142.231 134.426 144.098 134.324 145.931C132.559 145.727 133.51 145.184 131.847 146.643C131.677 146.575 131.473 146.474 131.304 146.406C131.439 146.745 131.575 147.085 131.711 147.458V147.424C129.81 148.238 131.27 149.528 131.134 150.885C130.795 150.58 130.523 150.207 130.319 149.766C129.844 150.818 130.761 153.397 128.962 152.311C129.267 154.11 128.894 154.517 127.197 154.585C127.401 155.06 127.74 155.297 128.249 155.263C126.994 156.282 126.586 156.621 125.127 156.96C125.229 157.3 125.466 157.571 125.84 157.741C125.297 157.843 124.788 158.012 124.279 158.182C125.263 159.2 123.566 158.861 124.313 160.116C124.007 160.252 123.702 160.388 123.362 160.524C123.193 160.524 123.057 160.592 122.887 160.626C121.903 160.931 120.851 161.135 119.935 161.576C120.342 161.915 120.681 161.61 121.055 161.915C121.53 162.288 121.971 163.476 122.344 163.985C121.632 165.105 121.055 163.476 120.783 163.341C119.765 162.798 119.969 162.119 118.543 163.205C119.731 163.646 119.29 162.56 120.444 163.442C119.765 164.121 119.018 164.155 118.509 165.071C117.797 166.327 118.17 166.395 116.846 167.447C117.118 166.836 117.084 166.259 116.778 165.716C116.507 166.463 116.066 166.531 115.489 166.089C115.353 166.632 115.353 166.938 114.98 167.345C115.625 167.345 116.235 167.345 116.88 167.413C116.575 167.617 116.235 167.854 115.896 168.092C116.066 168.261 116.371 168.601 116.711 168.974C115.896 169.246 115.082 169.517 114.301 169.789C114.471 169.008 112.536 169.687 113.351 168.431C111.925 169.212 113.554 169.619 114.335 169.755C113.928 170.06 113.52 170.366 113.011 170.739H114.946C114.369 171.214 113.52 171.723 113.215 172.436C113.724 172.673 114.301 172.741 114.878 172.639C114.369 172.877 113.419 173.081 112.977 173.454C112.061 174.167 113.317 174.2 111.925 174.947C113.656 175.185 114.03 172.979 115.285 174.133C117.966 170.942 121.903 168.601 124.923 165.682C126.281 164.393 131.745 157.096 133.204 157.537C132.458 158.148 132.695 159.404 131.575 160.184C132.627 161.067 130.659 162.662 130.048 163.408C129.098 164.596 128.453 166.055 127.537 167.175C127.061 167.752 125.908 168.363 125.5 168.94C124.89 169.721 124.991 170.23 124.482 171.146C124.075 171.927 123.159 172.164 122.65 172.741C122.378 173.081 122.276 173.725 122.073 173.963C121.665 174.404 121.292 174.472 120.885 174.845C119.935 175.728 119.833 176.678 119.12 177.73C118.272 178.952 116.88 179.427 115.726 180.241C115.964 180.275 116.202 180.377 116.405 180.513C115.591 181.192 114.64 181.768 113.996 182.447C113.487 182.956 112.706 183.771 111.891 184.382C109.38 186.214 107.344 188.556 104.833 190.423C99.5043 194.427 93.3956 197.515 86.9475 199.212C82.8072 200.332 49.1074 204.439 49.7182 198.907C49.6504 199.416 49.5486 199.891 49.4467 200.604C49.3449 200.4 48.8698 199.212 48.5644 199.077C47.139 198.5 49.3789 199.246 47.8178 199.484C46.4263 199.687 46.1548 199.653 45.001 198.737C42.3878 196.633 39.1977 194.936 36.5845 192.628C33.8356 190.219 31.426 187.47 29.254 184.517C26.9463 181.395 25.1815 177.085 22.3987 174.404C22.5683 177.526 25.453 180.581 26.2675 183.601C26.0978 183.601 25.8942 183.601 25.7245 183.601C25.8264 181.938 23.9937 180.411 23.1114 179.087C22.1611 177.662 21.2448 176.237 20.3624 174.743C18.3941 171.384 16.7311 167.854 15.3397 164.223C14.0161 160.727 12.9302 157.13 12.0817 153.499C11.3012 150.173 9.87579 145.761 11.1654 142.469C15.1361 145.218 17.342 151.971 19.3443 156.214C21.5842 160.965 24.8082 164.969 27.082 169.721C27.1838 170.399 27.2856 171.044 27.3875 171.723C27.659 171.553 27.8965 171.418 28.168 171.248C27.5232 170.569 26.8445 170.875 27.8286 169.89C27.5911 171.35 31.6975 174.879 32.7496 175.796C32.4781 176.339 32.0369 176.678 31.4939 176.882C31.6975 175.762 30.7473 176.474 30.4758 175.965C30.1703 175.49 30.2382 175.219 30.1364 174.608C28.4735 174.981 28.4056 173.114 27.2517 172.741C32.7835 182.447 44.424 188.726 55.3179 189.472C61.2909 189.88 67.3996 188.794 73.1011 186.995C78.1917 185.366 84.0629 183.16 88.0335 179.461C84.4362 180.886 80.5673 182.447 76.4948 184.076C76.8342 183.567 77.0378 183.228 77.3093 182.821C75.9179 183.499 74.3568 184.517 72.9314 184.721C72.9314 184.721 71.7436 184.517 71.8115 184.517C71.3024 184.416 71.2685 185.875 70.8273 184.28C70.3522 184.687 69.8092 185.06 69.5037 185.603C69.5037 185.603 68.6553 185.4 68.5874 185.4C68.4177 185.4 68.6892 186.079 68.3159 186.045C67.8069 185.977 67.6711 185.366 67.162 185.298C66.0082 185.162 66.0421 186.18 65.1597 186.418C64.2095 186.689 64.2774 185.264 63.3271 186.723C63.395 186.282 63.3271 185.841 63.0896 185.434C62.5805 187.3 61.9018 186.486 60.3406 186.554C59.3565 186.588 58.4741 186.859 57.4899 186.893C57.0148 186.893 56.6415 186.486 56.1324 186.52C56.0985 186.961 55.8948 187.198 55.5555 187.232C55.3179 187.334 55.0464 187.3 54.8088 187.131C54.4695 187.165 53.5871 186.995 53.1799 186.927C51.6866 186.554 50.4988 185.569 48.9716 185.298C48.8698 185.671 48.8019 185.841 48.5644 186.146C48.1232 185.434 48.1571 184.721 47.6141 183.974C47.6141 184.585 47.3426 185.128 46.9014 185.569C46.7318 185.196 46.5281 184.857 46.2227 184.585C45.9851 184.789 45.8154 185.06 45.7136 185.366C45.5439 185.094 44.0846 183.33 45.1028 183.16C45.2725 183.16 45.2724 183.839 45.3064 183.907C45.5439 184.45 46.2906 181.938 46.2566 182.04C46.1209 182.142 44.2543 183.907 44.1525 183.703C43.7453 182.787 44.1865 182.108 43.2362 181.599C43.338 182.447 43.1683 182.244 42.2181 182.142C42.4217 181.192 41.1321 180.886 40.4873 180.547C40.7249 180.377 40.9963 180.241 41.2339 180.072C41.4715 180.241 41.743 180.411 41.9805 180.581C42.0484 180.004 42.1163 180.207 41.2 180.072L41.3018 180.004ZM126.213 155.06C125.195 156.078 126.552 155.603 127.129 155.263C127.129 155.162 127.129 155.06 127.095 154.992C126.79 154.992 126.485 155.06 126.179 155.094C126.552 154.72 126.756 154.279 126.79 153.736C125.942 154.143 125.975 154.143 126.213 155.06ZM65.7027 14.1858C65.3294 13.9483 64.9901 13.6768 64.6167 13.4392C64.5149 13.8804 64.481 14.3216 64.5489 14.7628C64.9222 14.5591 65.2955 14.3555 65.6688 14.1519C66.11 13.8804 66.4833 13.3034 66.076 12.8962C65.7367 13.2695 65.6349 13.6767 65.7027 14.1519V14.1858ZM67.5693 179.8C70.9291 180.784 75.3749 178.477 78.3953 177.017C80.0243 176.271 81.6194 175.592 83.2823 174.981C85.047 174.336 86.5742 173.148 88.2032 172.198C94.821 168.397 100.862 164.359 105.952 158.589C114.573 148.849 122.344 133.068 118.238 119.901C113.996 106.326 97.1966 106.869 86.4045 111.281C80.3976 113.724 73.9156 117.627 69.4019 122.378C67.1281 124.788 66.7548 128.215 65.9403 131.304C64.9222 135.003 63.8701 138.668 62.8859 142.333C60.8836 149.766 58.9492 157.266 58.1686 164.936C57.7614 168.906 58.5759 172.402 58.7456 176.305C58.8135 178.171 57.1505 180.886 54.707 180.038C54.6392 180.513 53.5192 180.004 53.3156 180.852C52.9762 182.345 54.6052 181.802 55.3858 181.972C55.284 182.006 53.9944 182.413 54.2659 182.753C54.6731 183.296 56.1663 182.108 56.6415 182.108C57.2863 182.108 57.5917 182.651 58.3723 182.549C58.9492 182.481 59.4583 182.04 59.9334 181.701C59.8655 181.938 59.8316 182.142 59.7637 182.345C60.68 182.142 61.0873 182.176 61.2909 181.225C62.0714 181.802 63.0556 181.056 63.8701 181.056C64.3452 181.056 65.0579 181.395 65.4312 181.361C65.6349 181.124 65.6688 180.852 65.5331 180.513C66.11 180.581 66.6869 180.954 67.2639 180.954C68.0105 180.954 66.9924 180.275 68.6553 180.615C68.4177 180.411 68.1802 180.207 67.6032 179.698L67.5693 179.8ZM53.8247 155.297C56.4039 139.856 61.1551 125.025 65.8724 110.195C58.0329 124.211 53.655 139.143 53.8247 155.297ZM23.858 101.914C23.7901 101.982 23.6883 102.05 23.6204 102.118C24.0277 102.593 24.2652 103.203 24.6725 103.679C24.2313 103.136 25.9621 103.17 26.3015 103.339C26.7766 101.88 24.7743 100.251 23.9937 99.0631C22.7041 97.1287 21.6181 95.0246 21.0072 92.7508C19.6837 87.6941 20.057 82.332 18.971 77.2075C16.3239 81.3818 17.1044 88.5765 18.1904 93.158C18.6656 95.2282 19.514 97.2645 20.8376 98.9274C21.4484 99.674 25.0458 102.151 24.7403 102.694C24.401 102.491 24.0955 102.253 23.858 101.914ZM84.8095 109.176C89.7983 107.14 94.7531 105.104 99.7419 103.068C94.3119 103.95 88.848 104.832 84.8095 109.176ZM52.8405 35.1252C48.4286 37.399 43.1344 41.5054 41.5393 46.4263C43.5416 45.2385 45.1367 43.1004 46.7657 41.4036C48.8019 39.2995 50.8042 37.2293 52.8405 35.1252ZM141.96 22.5683C141.417 23.4168 141.349 23.1453 141.892 24.2652C142.808 23.5186 142.639 23.5525 141.96 22.5683ZM115.421 168.058C114.912 167.684 114.403 167.311 113.894 166.938C113.826 167.006 113.758 167.074 113.69 167.175C114.199 167.651 114.776 168.635 115.421 168.092V168.058ZM110.839 170.603C111.348 170.298 111.722 169.958 112.299 169.924C111.688 169.449 110.229 169.924 110.839 170.603ZM111.111 175.796C111.315 175.083 111.416 174.71 111.518 174.336C110.568 174.54 110.907 174.879 111.111 175.796ZM145.252 45.4421C144.98 45.0688 144.879 44.9331 144.777 44.8313C144.03 45.7136 143.996 45.4082 144.37 46.0191C144.675 45.8494 144.946 45.6457 145.252 45.4761V45.4421ZM48.6323 182.311C48.2929 182.888 48.5983 183.228 48.8359 183.873C49.1413 183.092 48.9716 183.024 48.6323 182.311ZM116.778 164.834C116.846 164.834 116.914 164.834 117.016 164.834C117.084 164.494 117.118 164.121 117.186 163.782H116.711C116.711 164.121 116.778 164.46 116.778 164.8V164.834ZM128.487 153.567C128.385 153.431 128.283 153.329 128.181 153.193C128.046 153.329 127.91 153.499 127.774 153.634C127.944 153.77 128.08 153.906 128.249 154.042C128.317 153.906 128.385 153.77 128.487 153.567ZM69.5377 13.2016C69.6395 13.2016 69.7752 13.2016 69.877 13.2016C69.8431 12.7604 69.8092 12.2853 69.7752 11.8441L69.5377 13.1677V13.2016ZM28.4395 172.504C28.3377 172.164 28.2698 171.927 28.202 171.689C27.9644 172.062 27.9644 172.47 28.202 172.843C28.2698 172.707 28.3717 172.605 28.4395 172.504ZM51.5509 184.687L51.3472 184.891C51.6187 185.162 51.9242 185.4 52.1957 185.671C52.2975 185.569 52.3654 185.502 52.4672 185.4C52.1617 185.162 51.8563 184.891 51.5509 184.653V184.687ZM76.6984 16.1202C76.8002 16.1202 76.8681 16.1542 76.9699 16.1881C77.0718 15.8148 77.1736 15.4415 77.2754 15.0342C77.2075 15.0342 77.1396 15.0342 77.0718 15.0003C76.936 15.3736 76.8002 15.7469 76.6984 16.1202ZM76.9699 24.3331C76.9021 24.3331 76.8003 24.401 76.7324 24.401C76.6306 25.1815 76.8681 25.5548 77.4111 25.5548C77.2754 25.1476 77.1396 24.7403 76.9699 24.3331ZM39.0619 173.25C38.994 173.25 38.9262 173.284 38.8244 173.318C38.9601 173.691 39.0619 174.099 39.1977 174.472C39.7407 174.37 39.6728 173.963 39.0619 173.25Z" fill="#262626"/>
<path d="M300.074 100.081C299.463 99.7758 298.954 99.5722 298.275 99.4025C298.615 100.047 298.954 100.794 298.886 101.541C298.751 101.235 298.615 100.964 298.513 100.726C298.038 100.828 298.275 101.642 297.902 101.812C297.461 102.016 297.257 101.337 296.748 101.507C296.918 101.846 297.122 102.219 297.257 102.491C295.934 103.204 296.545 102.423 295.73 102.762C295.085 103 294.814 103.407 294.271 103.679C292.676 104.561 292.336 104.697 291.895 106.36C291.25 108.803 291.216 111.382 290.673 113.894C290.164 116.235 290.877 119.426 288.637 120.817C289.044 120.851 289.418 120.919 289.486 120.919C289.18 122.548 288.739 122.684 287.212 123.227C287.789 123.498 288.06 123.532 288.4 124.109C288.06 123.973 287.721 123.939 287.382 124.041C287.721 124.211 287.823 124.448 287.687 124.754C287.144 124.686 286.635 124.55 286.126 124.38C288.434 126.722 285.685 128.555 283.852 129.607C285.006 130.353 284.056 131.236 283.581 132.118C283.038 133.136 284.022 133.577 282.359 133.272C282.834 133.815 283.071 134.019 283.207 134.731C282.427 134.392 282.596 135.139 281.918 135.376C280.832 135.749 281.544 135.817 280.424 135.648C280.798 136.021 281.171 136.394 281.51 136.835C280.424 136.937 279.814 137.616 278.694 137.107C279.542 139.415 278.999 138.6 278.456 140.569C278.252 140.229 277.981 139.992 277.675 139.754C277.336 140.229 276.895 140.602 276.488 141.01C276.827 141.145 277.166 141.281 277.472 141.451C276.759 141.722 273.807 142.707 273.773 143.284C274.078 143.284 274.384 143.182 274.689 143.012C274.689 145.082 270.175 147.729 268.682 148.815C267.834 149.426 266.883 149.766 266.001 150.275C265.22 150.716 264.576 151.564 263.761 151.904C263.252 152.141 262.404 152.073 261.962 152.345C261.419 152.684 261.08 153.397 260.503 153.804C257.551 155.942 252.053 156.112 248.557 156.383C244.553 156.723 240.684 156.383 237.086 154.517C229.892 150.75 224.903 142.028 223.444 134.29C222.561 129.573 222.256 124.686 222.018 119.901C221.882 117.423 221.916 115.183 222.188 112.74C222.256 112.095 222.052 110.873 222.324 110.296C222.561 109.787 223.308 109.55 223.41 109.21C223.002 109.007 222.561 108.973 222.12 109.075C223.342 108.124 222.527 107.751 222.493 106.461C222.493 106.292 222.358 105.172 222.663 105.172C223.172 105.172 223.138 106.36 223.749 106.19C224.224 106.054 223.41 105.308 223.41 105.172C223.41 105.104 223.002 105.002 222.968 104.731C222.901 104.425 223.376 102.627 223.41 102.151C223.206 102.151 222.968 102.151 222.765 102.151C222.867 101.812 223.681 101.371 222.663 101.133C222.833 100.489 224.53 97.2984 223.851 96.8572C223.002 96.2464 222.188 99.3007 221.747 99.7758C221.543 99.4025 221.339 99.0292 221.17 98.622C220.355 99.8437 222.799 101.269 221.577 102.287C221.984 102.491 222.391 102.423 222.765 102.118C221.305 103.814 221.136 105.477 220.186 107.615H220.219C219.337 106.733 218.726 107.819 217.878 107.989C217.98 107.615 218.217 107.344 218.523 107.14C218.523 106.563 218.081 106.733 218.217 106.054C218.319 105.545 218.624 104.934 218.726 104.357H220.389C220.389 104.289 220.389 104.188 220.423 104.12C219.643 103.882 219.066 103.78 218.523 103.17C219.167 102.796 219.88 102.966 220.627 103.034C220.287 102.661 219.914 102.389 219.439 102.219C219.066 102.389 218.692 102.423 218.319 102.355C218.319 102.355 219.507 99.4704 219.575 99.1989C219.846 97.2645 220.016 95.1943 220.593 93.0902C221.204 90.8503 222.629 88.8819 223.376 86.6081C224.156 84.1986 225.174 82.4338 226.294 80.194C226.837 79.108 227.448 78.022 227.991 76.9021C228.364 76.1554 228.432 74.7979 229.009 74.221C230.401 72.6938 235.627 73.1011 237.595 72.8974C240.175 72.6259 242.856 72.8296 245.265 72.5241C246.725 72.3205 247.912 72.3884 249.406 72.3544C250.763 72.3544 251.713 71.7775 253.071 72.1508C253.037 72.1508 251.069 73.2029 251.035 73.4744C250.933 74.0174 251.578 74.1531 251.544 74.4925C251.442 75.9518 250.424 76.5287 249.643 77.6487C249.168 78.3614 247.539 82.2642 248.116 82.6375C247.777 82.9429 247.403 82.7393 247.132 82.9768C246.826 83.2483 247.573 83.5198 247.268 83.7913C246.996 84.0628 245.876 84.9113 245.469 85.047C247.845 85.2507 244.858 87.0154 244.145 87.8299C244.994 87.4566 245.13 87.2529 245.842 87.7959C245.096 88.1693 244.96 88.2711 244.688 89.0516C244.451 88.848 244.213 88.6444 244.01 88.4747C244.01 88.9498 244.145 89.391 244.451 89.7304C244.519 89.4928 244.587 89.2553 244.688 89.0177C244.994 88.9498 245.265 88.8819 245.571 88.8141C244.96 89.5607 244.756 90.5109 244.451 91.3933C244.247 91.0879 244.077 90.8164 243.704 90.2055C243.806 91.02 243.84 91.4612 243.908 91.9363C244.077 91.7327 244.281 91.563 244.451 91.3594C244.451 91.6648 244.62 92.1739 244.519 92.2418C243.568 92.6829 243.025 93.2599 243.67 94.3459C242.652 94.9567 243.229 96.6875 243.025 97.6378C242.584 99.4365 241.905 99.165 240.276 99.4365C242.788 99.8437 241.804 101.167 240.107 101.914C241.329 103.271 240.718 105.443 240.412 107.038C240.276 107.683 240.209 109.21 239.53 109.278C239.937 110.704 239.157 109.686 239.055 110.907C239.055 111.145 239.666 111.722 239.666 111.925C239.666 111.959 239.666 112.638 239.666 112.74C239.7 114.301 238.071 119.12 239.564 120.274C238.647 121.055 239.7 121.428 239.564 122.208C239.462 122.819 239.055 123.159 238.987 123.736C238.817 125.466 239.564 127.808 239.7 129.607C239.937 133.577 241.091 138.023 243.467 141.281C247.709 147.186 254.564 145.999 260.333 143.25C266.883 140.127 272.347 134.697 275.979 128.453C277.845 125.263 279.203 121.767 280.051 118.17C280.289 117.118 281.341 114.301 280.866 113.385C280.153 111.959 277.642 113.622 276.318 113.826C269.938 114.912 262.098 112.604 258.263 107.174C253.784 100.828 254.598 91.7327 257.211 84.7755C259.655 78.3614 264.779 72.2187 272.008 71.54C279.983 70.7933 283.954 77.5469 287.076 83.7913C288.06 85.7597 288.705 87.7959 289.486 89.8322C290.368 92.1399 290.572 93.8707 293.015 92.3096C296.782 89.9001 300.244 86.676 303.298 83.418C306.658 79.8546 309.61 75.9518 312.563 72.049C313.954 70.1825 315.346 68.3159 316.771 66.4833C318.027 64.8543 319.249 62.5126 321.149 61.6981C321.828 64.5149 320.029 67.9087 318.943 70.454C317.586 73.6101 315.991 76.6645 314.158 79.5831C312.393 82.366 310.391 84.9792 308.151 87.3548C305.64 90.0358 301.669 92.4114 299.803 95.5337C300.278 95.7373 300.787 95.873 301.296 95.873C301.296 95.873 300.244 96.6536 300.244 96.6875C300.176 97.1627 301.024 96.8572 301.058 97.2305C301.16 98.1129 301.16 99.4025 300.142 99.9795C300.481 99.6401 301.296 97.4342 299.938 97.8753C299.294 98.079 299.837 99.708 300.142 99.9455L300.074 100.081ZM282.393 94.5834C282.528 94.5834 282.664 94.5155 282.834 94.4816C281.578 89.6625 280.899 83.4859 275.266 82.0266C270.107 80.6691 263.693 83.4859 264.168 89.3571C264.542 94.1762 267.834 97.8753 272.279 99.5043C274.859 100.455 277.608 100.556 280.323 100.285C281.612 100.149 282.325 100.285 282.868 99.165C283.275 98.2826 282.495 95.5676 282.393 94.5834ZM225.819 94.8889C225.039 94.4816 224.122 96.1445 224.462 96.959C224.903 96.2803 225.344 95.6355 225.819 94.8889ZM240.243 97.5699C240.718 98.2486 241.091 98.9274 241.838 98.4183C241.498 98.1129 240.65 96.8572 240.243 97.5699ZM239.021 114.81C238.783 115.285 238.376 115.692 238.783 116.134C239.53 115.319 239.462 115.523 239.021 114.81ZM238.783 99.5383C238.715 99.5383 238.647 99.5383 238.614 99.5722C238.546 100.556 238.444 100.353 239.089 100.658C238.987 100.285 238.885 99.9116 238.783 99.5383ZM227.414 90.2734C227.312 90.1716 227.211 90.1037 227.143 90.0019C226.668 90.4431 226.634 90.7824 227.007 91.0539C227.143 90.8164 227.278 90.5788 227.448 90.2734H227.414ZM251.408 74.7979C251.408 74.6961 251.34 74.5604 251.306 74.4586C250.933 74.5943 250.593 74.6961 250.22 74.8319C250.22 74.8658 250.288 74.8998 250.322 74.9337C250.695 74.8998 251.035 74.8319 251.408 74.7979Z" fill="#262626"/>
<path d="M218.149 124.923C217.335 123.973 217.98 123.837 217.98 122.819C217.98 121.903 217.64 121.224 217.369 120.342C216.928 120.478 216.52 120.715 216.181 121.021C216.181 119.188 217.538 119.935 218.692 119.935C218.557 119.12 218.455 118.475 218.319 117.797C218.862 117.288 219.269 115.659 217.912 116.202C217.912 116.066 217.912 115.93 217.912 115.828C219.439 114.301 219.337 112.808 219.235 110.67C218.93 110.738 218.591 110.772 218.285 110.839C218.658 111.518 218.557 112.265 218.557 113.011C218.285 112.876 218.047 112.774 217.742 112.706C218.115 112.706 217.844 115.625 217.912 115.862C217.437 116.134 216.894 118.272 216.52 119.018C215.604 120.817 215.197 122.819 214.484 124.686C212.889 128.826 211.022 132.661 208.375 136.225C205.932 139.55 203.115 142.571 199.993 145.286C197.957 147.051 193.205 151.87 190.355 151.395C187.911 153.77 184.382 154.687 181.225 155.806C178.544 156.757 176.338 157.368 173.454 157.266C173.182 156.791 173.895 157.605 174.065 157.741C172.843 157.605 171.927 157.639 171.18 156.621C169.687 157.911 168.872 157.809 166.836 157.435C165.784 157.266 165.784 157.435 164.834 156.791C163.782 156.112 162.831 155.128 161.881 154.313C158.759 151.802 157.978 148.374 155.772 145.218C154.992 153.295 164.121 160.218 171.01 162.288C179.868 164.936 187.979 161.508 196.294 158.759C190.083 163.239 183.364 167.074 175.592 167.718C171.825 168.024 168.058 167.583 164.426 166.463C162.662 165.92 160.863 165.207 159.2 164.359C157.164 163.273 156.757 162.56 155.942 160.524C155.162 161.135 155.263 160.965 155.433 161.712C154.517 160.592 155.026 161.202 154.72 159.981C154.72 159.879 153.736 160.422 153.668 160.456C153.261 158.555 153.295 159.404 151.971 158.454C152.379 158.148 152.616 157.775 152.752 157.232C150.885 157.911 148.476 151.259 147.831 149.732C145.625 144.573 144.946 137.684 144.879 132.084C144.777 125.976 144.946 119.799 145.625 113.724C145.897 111.247 146.27 108.464 147.017 106.122C147.288 105.274 147.627 105.104 148.069 104.29C148.578 103.305 148.069 101.541 148.951 100.76C149.256 100.828 149.324 101.065 149.223 101.473C149.698 99.4025 149.833 97.1627 150.444 95.2283C150.444 95.1604 151.021 95.2283 151.157 94.9228C151.225 94.7531 150.919 94.3798 151.089 94.1762C151.7 93.3278 152.107 91.6988 152.786 91.054C152.718 91.3933 152.65 91.7327 152.548 92.0381C153.567 91.2915 154.517 90.9522 153.024 90.2395C154.754 89.3571 155.365 88.7462 156.18 87.1512C156.926 85.6579 157.741 84.1986 158.589 82.7733C158.725 82.5357 159.438 81.823 159.404 81.8569C159.404 81.8569 159.234 81.3479 159.506 81.1103C159.607 81.0085 160.863 80.5334 160.999 80.4316C159.811 79.3456 162.899 76.9021 163.917 77.9541C164.936 79.0401 159.811 85.1828 159.064 86.2688L159.438 86.5742C163.951 81.5854 168.295 76.427 174.167 72.9654C175.354 72.2866 177.357 71.9812 178.307 71.0649C179.087 70.3182 178.884 69.5716 180.038 68.9947C182.651 67.739 186.214 68.1802 188.861 68.8589C188.895 68.6892 188.929 68.5196 188.963 68.3499C189.37 68.1462 193.748 69.7413 194.359 69.9449C196.158 70.5897 197.889 71.6079 199.348 72.8296C200.638 73.8817 206.577 81.3139 204.031 82.3999C204.235 82.7054 204.439 82.9429 204.71 83.1805C204.473 83.2144 204.201 83.2823 203.963 83.3163C205.626 85.1149 203.692 88.5426 203.319 90.5788C201.927 90.0019 201.758 91.4612 201.181 92.649C201.418 92.649 201.622 92.683 201.859 92.7848C201.825 92.7508 199.586 95.8391 199.416 96.1106C199.28 95.907 199.144 95.6694 198.975 95.3301C199.077 98.1808 194.766 101.269 192.832 102.83C191.033 104.29 189.404 105.749 187.775 107.378C186.282 108.871 183.839 110.364 182.922 112.231C188.556 110.67 195.717 106.699 199.518 102.253C199.653 102.355 199.789 102.491 199.891 102.593C195.242 107.751 190.66 112.468 184.789 116.303C179.053 120.07 172.877 122.785 166.361 124.856C164.732 125.365 163.816 125.466 163.442 127.129C163.035 128.894 163.374 131.372 163.408 133.17C163.476 136.869 164.087 140.127 165.309 143.623C167.583 150.105 174.947 149.223 180.445 147.899C180.445 148.069 180.445 148.34 180.377 148.646C181.904 147.831 183.431 147.356 184.925 146.508C187.165 145.252 189.608 144.2 191.916 143.046C191.712 143.419 191.508 143.759 191.339 144.132C191.882 144.132 192.051 143.759 191.848 143.08C193.952 141.383 196.056 139.686 198.16 138.023C198.296 137.921 198.601 138.023 198.839 138.091C198.941 138.057 199.077 137.989 199.212 137.955C199.552 137.955 199.891 137.955 199.755 137.955C199.993 136.903 200.095 136.802 200.536 136.157C200.638 136.021 201.248 136.225 201.418 135.987C201.825 135.478 201.893 134.392 202.368 133.747C202.878 133.102 203.59 132.729 204.133 132.186C206.746 129.505 208.138 125.5 210.751 122.684C211.464 121.903 211.633 121.632 212.075 120.478C212.651 118.883 213.704 118.102 214.484 116.745C215.061 115.726 215.265 114.063 215.808 112.842C216.452 111.416 216.962 110.364 217.165 108.769C217.946 109.075 217.776 109.448 218.455 109.177C218.624 109.109 218.523 108.362 218.658 108.226C219.167 107.751 219.405 107.717 220.118 107.649H220.084C220.016 108.26 219.948 108.871 219.88 109.482C219.371 109.618 218.624 109.55 218.726 110.161C219.235 110.059 219.609 109.855 219.88 109.448C219.676 112.638 219.439 115.828 219.303 119.018C219.269 120.206 220.084 125.161 218.047 124.788L218.149 124.923ZM163.374 111.993C167.752 108.294 199.009 85.0131 186.418 79.3456C183.533 78.056 182.481 81.0425 180.75 83.0108C178.273 85.8276 175.694 88.5426 173.216 91.3594C167.786 97.5699 165.75 104.256 163.374 111.993ZM191.033 70.5897C190.558 69.9789 190.253 69.6395 189.981 69.2662C189.879 69.4359 189.778 69.5716 189.676 69.7413C190.049 69.9789 190.456 70.2164 191.033 70.5897ZM187.843 145.829C187.741 145.829 187.674 145.761 187.572 145.761C187.47 146.134 187.063 146.847 187.47 147.118C187.606 146.711 187.707 146.27 187.843 145.863V145.829Z" fill="#262626"/>
<path d="M282.698 62.4447C281.375 62.9877 280.051 63.5307 278.558 64.1416C279.61 64.0737 280.594 63.9041 281.646 64.1416C280.526 65.7367 279.033 64.0059 278.049 65.5331C277.777 65.1258 276.59 65.567 276.182 65.6349C276.895 66.9584 275.436 65.9742 275.062 65.4991C274.282 67.6711 274.655 65.1597 273.942 65.5331C273.467 65.8046 273.298 66.1439 272.789 66.653C272.958 66.3136 272.924 65.9742 272.653 65.6688C271.736 66.653 271.024 66.8905 269.7 67.1281C269.123 67.2299 269.191 67.7729 268.546 67.6711C268.478 67.6711 267.868 66.8905 267.596 66.7887C267.359 66.8227 267.121 66.8566 266.917 66.8905C266.001 66.9584 265.051 67.0263 264.135 67.0942C264.61 67.5014 265.187 67.6711 265.119 68.282C264.135 67.6372 262.2 68.248 261.182 68.6892C261.284 68.3838 261.284 68.0783 261.148 67.7729C259.994 68.4856 260.062 69.0625 258.501 69.3001C256.091 69.6395 253.546 69.4698 251.103 69.5716C246.385 69.7413 241.668 69.911 236.951 70.1825C232.233 70.4879 227.55 70.8273 222.833 71.2006C218.421 71.54 213.195 72.7956 208.817 72.1848C200.875 71.0309 203.964 59.3564 205.796 54.3677C206.95 51.1775 210.615 49.9897 213.67 49.4467C215.57 49.1074 217.437 49.4128 219.371 49.2431C220.83 49.1413 223.07 48.3607 223.919 49.7522C224.699 48.5644 226.973 49.4467 228.025 49.5825C230.435 49.9219 232.912 50.0915 235.322 50.397C237.426 50.6345 239.801 51.3472 241.6 50.397C242.72 49.7861 243.093 49.0734 244.01 47.8856C245.333 46.9014 245.164 45.3743 246.623 44.1864C248.184 42.9308 248.897 41.709 251.001 42.286C251.001 39.6728 257.788 38.2135 260.096 38.2474C263.354 38.3153 268.343 40.2497 270.345 42.9647C272.585 45.9851 271.906 49.2431 270.175 52.2296C269.089 54.0962 267.46 56.1324 266.748 58.1686C265.899 60.5103 267.46 59.9673 269.7 60.0352C278.829 60.2049 288.026 58.8474 296.986 57.0487C301.398 56.1663 305.776 55.0803 310.052 53.7907C312.224 53.1459 314.362 52.4332 316.466 51.6527C318.231 51.0079 321.081 49.2771 322.982 49.5486C320.097 51.6866 317.382 54.0962 314.294 55.9288C311.375 57.6596 308.016 58.7456 304.825 59.8316C301.941 60.8158 299.294 61.8678 296.409 62.7502C294.95 63.1914 287.857 66.3136 287.11 64.4471C287.755 64.6846 287.755 64.1077 288.026 63.5647C288.128 65.2955 289.859 63.5647 290.538 63.1574C291.556 62.5466 294.882 61.6303 292.744 60.2728C292.879 61.2569 292.845 61.223 292.235 61.5963C292.438 61.4606 289.859 61.6981 289.723 61.7321C288.128 62.0714 283.988 63.3271 282.63 62.4108V62.5126L282.698 62.4447ZM243.501 49.9219C243.059 50.3631 242.686 50.7703 242.279 51.1775C243.365 51.0079 243.399 51.0079 243.501 49.9219ZM270.515 65.5331C270.515 65.6349 270.481 65.7027 270.447 65.8045L271.567 66.076C271.465 65.4312 271.601 65.7027 270.515 65.5331Z" fill="#262626"/>
<path d="M220.83 136.089C219.269 135.919 219.168 133.238 218.353 132.22C220.491 133 217.199 130.15 217.131 129.98C217.029 129.742 217.98 129.912 218.014 129.573C218.115 128.792 217.437 127.503 217.199 126.756C218.455 126.62 217.369 125.297 218.115 124.923C218.115 124.923 218.115 124.923 218.082 124.923C218.217 125.059 220.491 128.249 218.658 127.401C219.846 130.184 220.254 133.17 220.83 136.123V136.089Z" fill="#262626"/>
<path d="M46.9693 108.498C46.6638 109.075 46.053 109.719 46.1209 110.262C46.2905 111.552 45.3403 111.62 44.6615 111.993C43.1004 111.45 43.8131 108.09 45.6797 108.6C45.6797 108.464 45.6797 108.294 45.6797 108.158C45.4082 108.362 45.2724 108.294 45.2045 107.921C45.8154 107.649 46.3924 108.226 46.9354 108.532L46.9693 108.498ZM45.476 109.584C45.1027 109.109 44.7633 109.109 44.4579 109.482C44.7633 109.855 45.1027 109.889 45.476 109.584Z" fill="#262626"/>
<path d="M228.297 150.818C229.926 152.548 231.147 153.465 233.082 154.72C232.641 155.196 232.233 155.671 231.792 156.146C231.962 155.806 232.166 155.467 232.233 155.331C231.08 154.619 231.181 154.585 230.163 154.924C229.994 154.076 230.197 153.974 229.79 153.193C229.349 153.057 229.009 152.786 228.738 152.447C228.5 151.971 228.263 151.496 228.059 151.021C228.127 150.953 228.195 150.919 228.297 150.852V150.818Z" fill="#262626"/>
<path d="M220.83 136.089C221.543 138.329 223.206 141.553 223.002 143.894C222.358 143.385 222.561 141.451 221.441 141.926C221.441 140.738 221.306 139.992 220.864 138.906L219.269 137.378C219.269 136.496 220.152 136.36 220.796 136.089H220.83Z" fill="#262626"/>
<path d="M172.028 133.747C170.467 134.731 170.332 135.206 168.906 133.917C170.399 132.458 170.298 132.458 172.028 133.747Z" fill="#262626"/>
<path d="M44.39 115.116C43.9149 114.946 43.4058 114.844 42.8967 114.776C43.5755 114.131 43.5415 113.011 43.7452 112.129C44.0845 112.129 44.2542 112.333 44.2882 112.672C44.39 112.434 44.5257 112.197 44.6275 111.959C44.933 111.959 45.2384 111.959 45.6117 111.993C45.1705 113.045 44.7633 114.03 44.3221 115.048H44.356L44.39 115.116Z" fill="#262626"/>
<path d="M133.272 157.334C133.781 156.112 133.951 155.128 135.139 154.585C135.444 156.214 134.29 157.3 133.408 158.623C133.374 158.114 133.34 157.707 133.306 157.3L133.272 157.334Z" fill="#262626"/>
<path d="M147.661 165.648C147.322 165.173 145.863 162.831 147.967 163.307C149.46 163.646 148.069 165.105 147.661 165.648Z" fill="#262626"/>
<path d="M41.0303 29.763C40.5212 30.306 40.2836 30.6793 39.571 30.883C39.4691 28.8467 40.9285 29.3897 42.1841 28.2358C42.4556 29.254 42.1841 29.4237 41.5393 30.2382C41.3696 30.0685 41.1999 29.9327 41.0642 29.763H41.0303Z" fill="#262626"/>
<path d="M131.745 147.22V147.254C132.763 146.338 132.831 145.931 133.781 147.152C133.374 147.526 132.899 147.695 132.39 147.594C132.559 148.544 132.627 148.781 131.779 149.087C131.575 148.238 131.439 148.035 131.779 147.186L131.745 147.22Z" fill="#262626"/>
<path d="M210.751 146.949C210.446 146.541 208.952 143.86 211.09 144.573C212.448 145.048 211.124 146.372 210.751 146.949Z" fill="#262626"/>
<path d="M222.188 153.329C220.932 154.042 220.729 154.517 219.677 153.465C220.898 152.345 220.83 152.345 222.188 153.329Z" fill="#262626"/>
<path d="M63.5647 46.087C62.852 44.7295 62.6823 44.7634 63.8022 43.7114C64.8543 44.967 64.5489 44.9331 63.5647 46.087Z" fill="#262626"/>
<path d="M32.8514 175.626C33.632 176.983 33.3944 177.56 34.9216 177.866C33.7677 180.038 32.2066 177.051 32.8853 175.626H32.8514Z" fill="#262626"/>
<path d="M294.305 51.5848C293.253 52.5011 293.321 52.569 292.269 51.6527C293.185 50.8042 293.185 51.0079 294.305 51.5848Z" fill="#262626"/>
<path d="M38.1456 180.275C38.1456 179.936 38.1455 179.698 38.1795 179.495C38.4849 180.309 39.9103 181.225 39.7067 181.972C38.7564 181.225 37.9759 181.09 37.2971 180.072C37.5347 180.309 37.8062 180.411 38.1116 180.309L38.1456 180.275Z" fill="#262626"/>
<path d="M256.397 133.34C256.159 132.899 255.243 130.761 256.838 131.405C257.788 131.779 256.668 132.967 256.397 133.34Z" fill="#262626"/>
<path d="M44.3901 115.115H44.3562C44.2543 115.998 44.3562 117.254 43.7792 117.932C43.4398 117.05 44.0847 115.998 44.3901 115.149V115.115Z" fill="#262626"/>
<path d="M266.917 66.8227C267.155 66.7888 267.392 66.7548 267.596 66.7209C268.003 68.1802 266.306 68.0444 265.696 67.3318C266.103 67.1621 266.51 67.0263 266.883 66.8566L266.917 66.8227Z" fill="#262626"/>
<path d="M27.7607 112.774C26.6747 113.588 26.7426 113.622 25.8602 112.57C26.7426 111.824 26.8105 112.095 27.7607 112.774Z" fill="#262626"/>
<path d="M248.388 112.604C247.98 112.977 247.675 113.215 247.403 113.453C246.419 112.231 247.132 111.552 248.388 112.604Z" fill="#262626"/>
<path d="M191.542 59.4244C192.595 58.8135 192.628 58.5759 193.511 59.4244C192.628 60.3067 192.628 60.137 191.542 59.4244Z" fill="#262626"/>
<path d="M43.338 26.3693H45.2724C44.5937 27.082 44.1186 28.0662 43.1344 27.8286C43.6774 27.3535 44.2204 26.9802 43.9489 26.2336C43.7453 26.4033 43.5416 26.573 43.338 26.7087C43.338 26.6069 43.338 26.4711 43.338 26.3693Z" fill="#262626"/>
<path d="M37.399 179.427C36.4827 179.834 36.3809 180.038 35.4306 179.766C35.3288 179.766 34.5822 179.02 34.9216 179.02C35.7021 179.02 36.7881 178.782 37.5347 179.02C37.5008 179.155 37.4329 179.291 37.399 179.427Z" fill="#262626"/>
<path d="M132.458 59.9673C133.51 59.2547 134.12 60.0352 133.985 61.223C133.306 60.8837 132.967 60.4764 132.458 59.9334V59.9673Z" fill="#262626"/>
<path d="M131.27 61.4945C133.645 61.6642 132.05 62.1393 131.745 63.1235C131.1 62.7502 131.304 62.1733 131.304 61.4606L131.27 61.4945Z" fill="#262626"/>
<path d="M137.684 151.428C136.462 151.734 137.344 153.193 136.428 153.668C136.191 153.499 135.953 153.261 135.715 153.057C135.987 152.582 136.157 152.039 136.53 151.666C136.768 151.428 137.277 151.496 137.684 151.428Z" fill="#262626"/>
<path d="M119.833 164.868C120.953 163.51 120.07 165.445 119.493 166.022C119.256 165.614 118.984 164.8 119.493 164.562C119.629 164.664 119.731 164.766 119.867 164.834L119.833 164.868Z" fill="#262626"/>
<path d="M164.291 77.8183C163.884 77.0038 164.087 75.7821 165.139 76.4948C164.291 76.8342 165.105 77.1396 165.037 77.6487C164.8 77.7505 164.528 77.8183 164.291 77.8523V77.8183Z" fill="#262626"/>
<path d="M7.60202 71.54C6.78752 72.0491 6.78751 72.1848 6.10876 71.54C7.05901 70.7934 6.85539 70.9291 7.60202 71.54Z" fill="#262626"/>
<path d="M41.2678 182.345C42.1163 182.888 42.6593 183.33 43.5416 182.787C42.9986 184.619 41.9126 183.16 41.1321 182.515C41.166 182.447 41.2 182.413 41.2678 182.345Z" fill="#262626"/>
<path d="M122.955 160.388C123.125 160.388 123.261 160.32 123.43 160.286C123.668 160.558 123.905 160.829 124.143 161.101C123.702 161.27 123.261 161.406 122.819 161.576C122.853 161.169 122.921 160.795 122.955 160.388Z" fill="#262626"/>
<path d="M196.09 125.161C196.769 126.043 196.939 126.994 195.479 125.874C195.649 125.67 195.785 125.5 196.09 125.161Z" fill="#262626"/>
<path d="M302.687 95.4658C302.518 95.3979 302.28 95.2622 302.076 95.1604C302.925 94.4816 303.061 94.6513 304.079 95.1264C303.671 95.2283 303.23 95.3301 302.687 95.4658Z" fill="#262626"/>
<path d="M31.5617 166.666C30.6454 167.209 30.0006 166.87 30.7812 165.92C30.9848 166.123 31.2223 166.327 31.5617 166.666Z" fill="#262626"/>
<path d="M35.1252 168.024C34.8198 168.194 34.5483 168.397 34.2428 168.567C34.0392 168.194 33.8695 167.82 33.6659 167.447C34.175 167.447 34.684 167.311 35.1591 167.141C34.9555 167.413 34.7519 167.718 34.5483 167.99C34.7519 167.99 34.9555 168.024 35.1591 168.058L35.1252 168.024Z" fill="#262626"/>
<path d="M1.42537 150.75C0.610877 151.225 0.814497 151.395 0 150.58C0.610873 150.071 0.746626 150.342 1.42537 150.75Z" fill="#262626"/>
<path d="M38.485 196.803C37.942 196.396 37.942 196.599 38.451 195.819C38.6886 195.988 38.9601 196.192 39.1976 196.362C38.994 196.463 38.8243 196.599 38.485 196.769V196.803Z" fill="#262626"/>
<path d="M143.759 109.007C143.012 109.414 143.148 109.584 142.469 108.837C143.114 108.328 143.114 108.498 143.759 109.007Z" fill="#262626"/>
<path d="M159.302 169.857C158.691 170.4 158.895 170.467 158.046 169.924C158.521 169.381 158.623 169.551 159.302 169.857Z" fill="#262626"/>
<path d="M263.015 164.121C263.456 164.732 263.524 164.698 263.116 165.343C262.336 164.664 262.506 164.8 263.015 164.121Z" fill="#262626"/>
<path d="M136.394 153.668C136.021 153.906 135.648 154.143 135.274 154.381C135.342 154.008 135.444 153.6 135.512 153.227C135.817 153.397 136.089 153.533 136.394 153.702V153.668Z" fill="#262626"/>
<path d="M130.693 63.7343C130.591 63.9719 130.387 64.3792 130.184 64.7525C129.743 64.2434 129.912 63.4968 130.693 63.7343Z" fill="#262626"/>
<path d="M142.605 50.8382C142.469 50.4649 142.299 50.0916 142.164 49.7183C142.401 49.7522 142.639 49.8201 142.91 49.854C142.808 50.1934 142.707 50.5328 142.605 50.8382Z" fill="#262626"/>
<path d="M142.096 50.2613V52.06C141.485 51.3812 141.79 51.1776 142.096 50.2613Z" fill="#262626"/>
<path d="M7.33051 170.433C6.92326 169.789 6.82145 169.789 7.33051 169.212C7.83957 169.789 7.73776 169.789 7.33051 170.433Z" fill="#262626"/>
<path d="M142.605 50.8381C142.944 50.9739 143.317 51.1096 143.691 51.1775C143.182 52.2296 142.842 51.7544 142.639 50.8042L142.605 50.8381Z" fill="#262626"/>
<path d="M48.3947 96.8572C48.5643 96.3821 48.734 95.9069 48.9037 95.4318C48.9716 96.0088 48.8019 96.4839 48.3947 96.8233V96.8572Z" fill="#262626"/>
<path d="M52.9083 20.2946C52.8065 20.1249 52.7387 19.9891 52.6708 19.8534C53.1798 19.3104 53.621 19.2086 54.0283 19.6158C53.6889 19.8194 53.3156 20.057 52.9083 20.2946Z" fill="#262626"/>
<path d="M324 75.0016C323.423 75.5107 323.694 75.5107 322.914 74.798C323.389 74.3568 323.152 74.3908 324 75.0016Z" fill="#262626"/>
<path d="M39.6389 32.4102C39.5031 32.3423 39.3674 32.2745 39.2316 32.2066C39.0619 31.969 38.8583 31.7315 38.6886 31.4939C39.537 31.4939 39.4352 31.2563 39.6389 32.4102Z" fill="#262626"/>
<path d="M199.246 138.057C199.11 138.091 199.009 138.159 198.873 138.193C199.077 137.107 198.805 137.243 199.45 137.175C199.382 137.48 199.314 137.752 199.246 138.057Z" fill="#262626"/>
<path d="M163.985 179.766C163.51 179.155 163.442 179.155 163.884 178.544C164.427 179.053 164.325 179.087 163.985 179.766Z" fill="#262626"/>
<path d="M137.684 151.429C137.378 150.75 137.514 150.41 137.752 149.664C138.193 150.41 137.82 150.512 137.684 151.429Z" fill="#262626"/>
<path d="M243.501 94.5155C243.636 94.1762 243.772 93.8368 243.976 93.5314C244.247 94.2101 244.213 93.9725 243.738 94.9228C243.67 94.787 243.602 94.6174 243.535 94.4816V94.5155H243.501Z" fill="#262626"/>
<path d="M50.2613 91.0879C50.0916 90.8164 49.9219 90.5788 49.7861 90.3413C50.1594 90.1037 50.5328 90.2394 50.8382 90.6806C50.6685 90.7824 50.4988 90.9182 50.2613 91.054V91.0879Z" fill="#262626"/>
<path d="M139.245 147.051L139.992 145.489L140.229 145.591C140.026 146.134 139.788 146.677 139.584 147.186C139.483 147.152 139.381 147.085 139.245 147.051Z" fill="#262626"/>
<path d="M88.814 82.6714C88.2031 82.9429 88.271 83.0786 87.6941 82.5356C88.3389 82.1284 88.271 82.2641 88.814 82.6714Z" fill="#262626"/>
<path d="M43.9488 183.533C44.2882 184.348 44.3222 184.178 43.881 184.653C43.338 183.907 43.4398 184.076 43.9488 183.533Z" fill="#262626"/>
<path d="M315.516 41.4036C314.837 41.7429 314.973 41.8448 314.328 41.2678C315.041 40.9624 314.939 41.0642 315.516 41.4036Z" fill="#262626"/>
<path d="M304.69 94.9567C304.045 94.3459 304.011 93.9386 304.554 93.735C304.69 94.0744 304.825 94.4137 304.961 94.7871C304.859 94.8549 304.791 94.8889 304.69 94.9567Z" fill="#262626"/>
<path d="M244.078 47.7838V46.562C244.247 46.562 244.417 46.596 244.587 46.6299C244.417 47.0371 244.247 47.4444 244.044 47.8177L244.078 47.7838Z" fill="#262626"/>
<path d="M127.129 48.7001C126.994 49.2771 126.688 49.6504 126.213 49.7861C126.111 49.6843 126.077 49.5825 126.043 49.4468C126.417 49.2092 126.79 48.9716 127.163 48.7341L127.129 48.7001Z" fill="#262626"/>
<path d="M62.9198 13.9822C62.852 14.2876 62.7502 14.627 62.6823 14.9324C62.5465 14.7288 62.4108 14.5252 62.275 14.3216C62.5126 14.2197 62.7162 14.1179 62.9538 14.0161L62.9198 13.9822Z" fill="#262626"/>
<path d="M146.304 44.5259C146.643 44.6277 146.983 44.7295 147.288 44.8313C147.22 44.9331 147.186 45.0349 147.118 45.1368C146.847 44.9331 146.575 44.6956 146.304 44.4919V44.5259Z" fill="#262626"/>
<path d="M196.837 45.0688C197.04 45.2046 197.21 45.3403 197.38 45.4422C196.972 45.7815 197.108 45.8155 196.497 45.4422C196.599 45.3403 196.701 45.2046 196.837 45.0688Z" fill="#262626"/>
<path d="M305.436 69.877C305.131 70.2843 304.825 70.2843 304.554 69.877C304.791 69.4698 305.097 69.4698 305.436 69.877Z" fill="#262626"/>
<path d="M164.969 75.6124L166.327 75.0694C166.327 75.1712 166.395 75.2391 166.429 75.3409C165.988 75.5106 165.512 75.6803 165.071 75.816C165.071 75.7481 165.003 75.6803 165.003 75.6124H164.969Z" fill="#262626"/>
<path d="M130.659 153.159C130.218 153.397 129.946 153.736 129.573 153.363C130.184 152.82 130.014 152.922 130.659 153.159Z" fill="#262626"/>
<path d="M215.808 123.634C215.536 123.091 216.385 123.091 216.69 123.227C216.419 123.328 216.147 123.464 215.808 123.634Z" fill="#262626"/>
<path d="M117.898 58.1686C117.729 57.965 117.627 57.8292 117.525 57.6935C118.17 57.3202 118.34 57.6256 117.898 58.1686Z" fill="#262626"/>
<path d="M30.849 172.266C30.9508 172.673 31.0866 173.114 31.1884 173.522L30.9508 173.59C30.8151 173.182 30.6793 172.775 30.5436 172.368C30.6454 172.368 30.7472 172.3 30.849 172.266Z" fill="#262626"/>
<path d="M282.698 62.4448C282.834 62.852 282.97 63.2593 283.072 63.6665C282.936 63.6665 282.8 63.6665 282.698 63.6665C282.698 63.2593 282.698 62.852 282.698 62.4448Z" fill="#262626"/>
<path d="M302.993 96.3142C302.552 96.6536 302.11 96.5857 301.703 96.0088C302.416 95.6015 302.416 95.7373 302.993 96.3142Z" fill="#262626"/>
<path d="M28.3377 186.282C28.6432 186.689 29.254 187.063 28.8129 187.47C28.1002 187.097 27.9305 186.689 28.3377 186.282Z" fill="#262626"/>
<path d="M99.9456 156.621C99.3347 155.772 97.2985 152.854 99.9456 152.854C102.898 152.854 100.624 155.739 99.9456 156.621Z" fill="#262626"/>
<path d="M109.686 140.602C109.991 141.078 111.247 143.453 109.312 142.91C107.819 142.503 109.312 141.112 109.686 140.602Z" fill="#262626"/>
<path d="M100.013 116.677C98.9613 117.423 98.9614 117.695 98.0111 116.812C98.9953 115.964 98.9274 115.896 100.013 116.677Z" fill="#262626"/>
<path d="M113.962 129.064C112.977 129.675 113.011 129.743 112.197 128.928C113.079 128.249 113.045 128.385 113.962 129.064Z" fill="#262626"/>
<path d="M78.1917 128.249C77.2754 128.826 77.2754 128.962 76.5288 128.181C77.3094 127.638 77.3433 127.774 78.1917 128.249Z" fill="#262626"/>
<path d="M90.0019 152.752C90.5788 153.363 90.5449 153.193 90.1716 153.634C89.5947 153.125 89.6965 153.261 90.0019 152.752Z" fill="#262626"/>
</svg>
